<mxfile host="app.diagrams.net" modified="2024-04-18T19:20:06.300Z" agent="Mozilla/5.0 (Windows NT 10.0; Win64; x64) AppleWebKit/537.36 (KHTML, like Gecko) Chrome/122.0.0.0 Safari/537.36 OPR/108.0.0.0 (Edition Yx 05)" etag="O63SP2hjnP3T6A-Xt04W" version="22.1.16" type="github">
  <diagram name="Page-1" id="2YBvvXClWsGukQMizWep">
    <mxGraphModel dx="576" dy="315" grid="1" gridSize="10" guides="1" tooltips="1" connect="1" arrows="1" fold="1" page="1" pageScale="1" pageWidth="850" pageHeight="1100" math="0" shadow="0">
      <root>
        <mxCell id="0" />
        <mxCell id="1" parent="0" />
        <mxCell id="jDaQLhD_lJ2NeZCt72Vo-13" value="Пользователь" style="shape=umlLifeline;perimeter=lifelinePerimeter;whiteSpace=wrap;html=1;container=0;dropTarget=0;collapsible=0;recursiveResize=0;outlineConnect=0;portConstraint=eastwest;newEdgeStyle={&quot;edgeStyle&quot;:&quot;elbowEdgeStyle&quot;,&quot;elbow&quot;:&quot;vertical&quot;,&quot;curved&quot;:0,&quot;rounded&quot;:0};" vertex="1" parent="1">
          <mxGeometry x="160" y="60" width="100" height="930" as="geometry" />
        </mxCell>
        <mxCell id="jDaQLhD_lJ2NeZCt72Vo-17" value="Банкомат" style="shape=umlLifeline;perimeter=lifelinePerimeter;whiteSpace=wrap;html=1;container=0;dropTarget=0;collapsible=0;recursiveResize=0;outlineConnect=0;portConstraint=eastwest;newEdgeStyle={&quot;edgeStyle&quot;:&quot;elbowEdgeStyle&quot;,&quot;elbow&quot;:&quot;vertical&quot;,&quot;curved&quot;:0,&quot;rounded&quot;:0};" vertex="1" parent="1">
          <mxGeometry x="340" y="60" width="100" height="930" as="geometry" />
        </mxCell>
        <mxCell id="jDaQLhD_lJ2NeZCt72Vo-44" value="" style="html=1;points=[[0,0,0,0,5],[0,1,0,0,-5],[1,0,0,0,5],[1,1,0,0,-5]];perimeter=orthogonalPerimeter;outlineConnect=0;targetShapes=umlLifeline;portConstraint=eastwest;newEdgeStyle={&quot;curved&quot;:0,&quot;rounded&quot;:0};" vertex="1" parent="jDaQLhD_lJ2NeZCt72Vo-17">
          <mxGeometry x="45" y="80" width="10" height="100" as="geometry" />
        </mxCell>
        <mxCell id="jDaQLhD_lJ2NeZCt72Vo-45" value="" style="html=1;points=[[0,0,0,0,5],[0,1,0,0,-5],[1,0,0,0,5],[1,1,0,0,-5]];perimeter=orthogonalPerimeter;outlineConnect=0;targetShapes=umlLifeline;portConstraint=eastwest;newEdgeStyle={&quot;curved&quot;:0,&quot;rounded&quot;:0};" vertex="1" parent="jDaQLhD_lJ2NeZCt72Vo-17">
          <mxGeometry x="45" y="230" width="10" height="90" as="geometry" />
        </mxCell>
        <mxCell id="jDaQLhD_lJ2NeZCt72Vo-46" value="" style="html=1;points=[[0,0,0,0,5],[0,1,0,0,-5],[1,0,0,0,5],[1,1,0,0,-5]];perimeter=orthogonalPerimeter;outlineConnect=0;targetShapes=umlLifeline;portConstraint=eastwest;newEdgeStyle={&quot;curved&quot;:0,&quot;rounded&quot;:0};" vertex="1" parent="jDaQLhD_lJ2NeZCt72Vo-17">
          <mxGeometry x="45" y="360" width="10" height="300" as="geometry" />
        </mxCell>
        <mxCell id="jDaQLhD_lJ2NeZCt72Vo-48" value="" style="html=1;points=[[0,0,0,0,5],[0,1,0,0,-5],[1,0,0,0,5],[1,1,0,0,-5]];perimeter=orthogonalPerimeter;outlineConnect=0;targetShapes=umlLifeline;portConstraint=eastwest;newEdgeStyle={&quot;curved&quot;:0,&quot;rounded&quot;:0};" vertex="1" parent="jDaQLhD_lJ2NeZCt72Vo-17">
          <mxGeometry x="50" y="390" width="10" height="60" as="geometry" />
        </mxCell>
        <mxCell id="jDaQLhD_lJ2NeZCt72Vo-19" value="Нажимает кнопку&lt;br&gt;&quot;Войти в личный&amp;nbsp;&lt;br&gt;кабинет по скану сетчатки&quot;" style="html=1;verticalAlign=bottom;endArrow=block;edgeStyle=elbowEdgeStyle;elbow=vertical;curved=0;rounded=0;" edge="1" parent="1">
          <mxGeometry relative="1" as="geometry">
            <mxPoint x="210" y="150" as="sourcePoint" />
            <Array as="points">
              <mxPoint x="295" y="150" />
            </Array>
            <mxPoint x="385" y="150" as="targetPoint" />
          </mxGeometry>
        </mxCell>
        <mxCell id="jDaQLhD_lJ2NeZCt72Vo-20" value="Показывает надпись&lt;br&gt;&quot;Встаньте ближе к банкомату&amp;nbsp;&lt;br&gt;и нажмите кнопку &quot;ДАЛЕЕ&quot;" style="html=1;verticalAlign=bottom;endArrow=block;edgeStyle=elbowEdgeStyle;elbow=vertical;curved=0;rounded=0;" edge="1" parent="1">
          <mxGeometry relative="1" as="geometry">
            <mxPoint x="385" y="230" as="sourcePoint" />
            <Array as="points">
              <mxPoint x="300" y="230" />
            </Array>
            <mxPoint x="215" y="230" as="targetPoint" />
          </mxGeometry>
        </mxCell>
        <mxCell id="jDaQLhD_lJ2NeZCt72Vo-21" value="Нажимает кнопку &quot;ДАЛЕЕ&quot;" style="html=1;verticalAlign=bottom;endArrow=block;edgeStyle=elbowEdgeStyle;elbow=vertical;curved=0;rounded=0;" edge="1" parent="1">
          <mxGeometry relative="1" as="geometry">
            <mxPoint x="215" y="300" as="sourcePoint" />
            <Array as="points">
              <mxPoint x="295" y="300" />
            </Array>
            <mxPoint x="385" y="300" as="targetPoint" />
          </mxGeometry>
        </mxCell>
        <mxCell id="jDaQLhD_lJ2NeZCt72Vo-22" value="Показывает на экране&lt;br&gt;красный&amp;nbsp;крест и надпись&lt;br&gt;(см. комментарий)" style="html=1;verticalAlign=bottom;endArrow=block;edgeStyle=elbowEdgeStyle;elbow=vertical;curved=0;rounded=0;" edge="1" parent="1">
          <mxGeometry x="0.0028" relative="1" as="geometry">
            <mxPoint x="385" y="370" as="sourcePoint" />
            <Array as="points">
              <mxPoint x="300" y="370" />
            </Array>
            <mxPoint x="215" y="370" as="targetPoint" />
            <mxPoint as="offset" />
          </mxGeometry>
        </mxCell>
        <mxCell id="jDaQLhD_lJ2NeZCt72Vo-23" value="Нажимает кнопку&lt;br&gt;&quot;ПРОДОЛЖИТЬ&quot;" style="html=1;verticalAlign=bottom;endArrow=block;edgeStyle=elbowEdgeStyle;elbow=vertical;curved=0;rounded=0;" edge="1" parent="1">
          <mxGeometry relative="1" as="geometry">
            <mxPoint x="210" y="430" as="sourcePoint" />
            <Array as="points">
              <mxPoint x="295" y="430" />
            </Array>
            <mxPoint x="385" y="430" as="targetPoint" />
          </mxGeometry>
        </mxCell>
        <mxCell id="jDaQLhD_lJ2NeZCt72Vo-26" value="" style="endArrow=none;html=1;rounded=0;" edge="1" parent="1" source="jDaQLhD_lJ2NeZCt72Vo-48">
          <mxGeometry width="50" height="50" relative="1" as="geometry">
            <mxPoint x="403" y="460" as="sourcePoint" />
            <mxPoint x="443" y="460" as="targetPoint" />
            <Array as="points">
              <mxPoint x="443" y="460" />
              <mxPoint x="448" y="460" />
            </Array>
          </mxGeometry>
        </mxCell>
        <mxCell id="jDaQLhD_lJ2NeZCt72Vo-27" value="" style="endArrow=none;html=1;rounded=0;startArrow=block;startFill=1;" edge="1" parent="1" source="jDaQLhD_lJ2NeZCt72Vo-48">
          <mxGeometry width="50" height="50" relative="1" as="geometry">
            <mxPoint x="403" y="500" as="sourcePoint" />
            <mxPoint x="448" y="460" as="targetPoint" />
            <Array as="points">
              <mxPoint x="428" y="500" />
              <mxPoint x="448" y="500" />
            </Array>
          </mxGeometry>
        </mxCell>
        <mxCell id="jDaQLhD_lJ2NeZCt72Vo-28" value="Сканирует&lt;br&gt;сетчатку" style="edgeLabel;html=1;align=center;verticalAlign=middle;resizable=0;points=[];" vertex="1" connectable="0" parent="jDaQLhD_lJ2NeZCt72Vo-27">
          <mxGeometry x="0.5825" relative="1" as="geometry">
            <mxPoint as="offset" />
          </mxGeometry>
        </mxCell>
        <mxCell id="jDaQLhD_lJ2NeZCt72Vo-29" value="БД" style="shape=umlLifeline;perimeter=lifelinePerimeter;whiteSpace=wrap;html=1;container=0;dropTarget=0;collapsible=0;recursiveResize=0;outlineConnect=0;portConstraint=eastwest;newEdgeStyle={&quot;edgeStyle&quot;:&quot;elbowEdgeStyle&quot;,&quot;elbow&quot;:&quot;vertical&quot;,&quot;curved&quot;:0,&quot;rounded&quot;:0};" vertex="1" parent="1">
          <mxGeometry x="510" y="60" width="100" height="930" as="geometry" />
        </mxCell>
        <mxCell id="jDaQLhD_lJ2NeZCt72Vo-42" value="&quot;Снимите очки и приготовьтесь&lt;br style=&quot;border-color: var(--border-color); font-size: 11px;&quot;&gt;&lt;span style=&quot;font-size: 11px; background-color: rgb(255, 255, 255);&quot;&gt;смотреть на красный крест,&lt;/span&gt;&lt;br style=&quot;border-color: var(--border-color); font-size: 11px;&quot;&gt;&lt;span style=&quot;font-size: 11px; background-color: rgb(255, 255, 255);&quot;&gt;не моргайте, сканирование&lt;/span&gt;&lt;br style=&quot;border-color: var(--border-color); font-size: 11px;&quot;&gt;&lt;span style=&quot;font-size: 11px; background-color: rgb(255, 255, 255);&quot;&gt;продлится 10 секунд.&lt;/span&gt;&lt;br style=&quot;border-color: var(--border-color); font-size: 11px;&quot;&gt;&lt;span style=&quot;font-size: 11px; background-color: rgb(255, 255, 255);&quot;&gt;Как будете готовы&lt;/span&gt;&lt;br style=&quot;border-color: var(--border-color); font-size: 11px;&quot;&gt;&lt;span style=&quot;font-size: 11px; background-color: rgb(255, 255, 255);&quot;&gt;нажмите кнопку&lt;/span&gt;&lt;br style=&quot;border-color: var(--border-color); font-size: 11px;&quot;&gt;&lt;span style=&quot;font-size: 11px; background-color: rgb(255, 255, 255);&quot;&gt;«ПРОДОЛЖИТЬ»&lt;/span&gt;" style="shape=note2;boundedLbl=1;whiteSpace=wrap;html=1;size=25;verticalAlign=top;align=center;" vertex="1" parent="1">
          <mxGeometry x="10" y="270" width="140" height="190" as="geometry" />
        </mxCell>
        <mxCell id="jDaQLhD_lJ2NeZCt72Vo-43" value="" style="endArrow=none;html=1;rounded=0;" edge="1" parent="1">
          <mxGeometry width="50" height="50" relative="1" as="geometry">
            <mxPoint x="150" y="370" as="sourcePoint" />
            <mxPoint x="205" y="370" as="targetPoint" />
          </mxGeometry>
        </mxCell>
        <mxCell id="jDaQLhD_lJ2NeZCt72Vo-49" value="" style="endArrow=block;html=1;rounded=0;curved=0;endFill=1;" edge="1" parent="1" target="jDaQLhD_lJ2NeZCt72Vo-51">
          <mxGeometry width="50" height="50" relative="1" as="geometry">
            <mxPoint x="395" y="530" as="sourcePoint" />
            <mxPoint x="540" y="530" as="targetPoint" />
          </mxGeometry>
        </mxCell>
        <mxCell id="jDaQLhD_lJ2NeZCt72Vo-50" value="Отправляет скан&lt;br&gt;на проверку" style="edgeLabel;html=1;align=center;verticalAlign=middle;resizable=0;points=[];" vertex="1" connectable="0" parent="jDaQLhD_lJ2NeZCt72Vo-49">
          <mxGeometry x="0.0261" y="-1" relative="1" as="geometry">
            <mxPoint as="offset" />
          </mxGeometry>
        </mxCell>
        <mxCell id="jDaQLhD_lJ2NeZCt72Vo-37" value="Alt" style="shape=umlFrame;whiteSpace=wrap;html=1;pointerEvents=0;recursiveResize=0;container=1;collapsible=0;width=80;height=30;" vertex="1" parent="1">
          <mxGeometry x="298" y="560" width="312" height="190" as="geometry" />
        </mxCell>
        <mxCell id="jDaQLhD_lJ2NeZCt72Vo-51" value="" style="html=1;points=[[0,0,0,0,5],[0,1,0,0,-5],[1,0,0,0,5],[1,1,0,0,-5]];perimeter=orthogonalPerimeter;outlineConnect=0;targetShapes=umlLifeline;portConstraint=eastwest;newEdgeStyle={&quot;curved&quot;:0,&quot;rounded&quot;:0};" vertex="1" parent="jDaQLhD_lJ2NeZCt72Vo-37">
          <mxGeometry x="257" y="-50" width="10" height="240" as="geometry" />
        </mxCell>
        <mxCell id="jDaQLhD_lJ2NeZCt72Vo-38" value="&lt;b&gt;[Скан сетчатки совпадает&lt;br&gt;со сканом в БД]&lt;/b&gt;" style="text;html=1;align=center;verticalAlign=middle;resizable=0;points=[];autosize=1;strokeColor=none;fillColor=none;" vertex="1" parent="jDaQLhD_lJ2NeZCt72Vo-37">
          <mxGeometry x="92" width="180" height="40" as="geometry" />
        </mxCell>
        <mxCell id="jDaQLhD_lJ2NeZCt72Vo-39" value="&lt;b&gt;[Скан сетчатки отличается&lt;br&gt;от скана в БД]&lt;/b&gt;" style="text;html=1;align=center;verticalAlign=middle;resizable=0;points=[];autosize=1;strokeColor=none;fillColor=none;" vertex="1" parent="jDaQLhD_lJ2NeZCt72Vo-37">
          <mxGeometry x="92" y="90" width="180" height="40" as="geometry" />
        </mxCell>
        <mxCell id="jDaQLhD_lJ2NeZCt72Vo-41" value="" style="endArrow=none;dashed=1;html=1;dashPattern=1 3;strokeWidth=2;rounded=0;entryX=1.005;entryY=0.497;entryDx=0;entryDy=0;entryPerimeter=0;exitX=0.005;exitY=0.448;exitDx=0;exitDy=0;exitPerimeter=0;" edge="1" parent="jDaQLhD_lJ2NeZCt72Vo-37" target="jDaQLhD_lJ2NeZCt72Vo-37">
          <mxGeometry width="50" height="50" relative="1" as="geometry">
            <mxPoint x="0.004999999999881766" y="90.36000000000013" as="sourcePoint" />
            <mxPoint x="253.9849999999999" y="89.6400000000001" as="targetPoint" />
          </mxGeometry>
        </mxCell>
        <mxCell id="jDaQLhD_lJ2NeZCt72Vo-55" value="" style="endArrow=block;startArrow=none;endFill=0;startFill=0;endSize=8;html=1;verticalAlign=bottom;dashed=1;labelBackgroundColor=none;rounded=0;" edge="1" parent="jDaQLhD_lJ2NeZCt72Vo-37">
          <mxGeometry width="160" relative="1" as="geometry">
            <mxPoint x="257" y="60" as="sourcePoint" />
            <mxPoint x="97" y="60" as="targetPoint" />
          </mxGeometry>
        </mxCell>
        <mxCell id="jDaQLhD_lJ2NeZCt72Vo-56" value="Скан совпадает" style="edgeLabel;html=1;align=center;verticalAlign=middle;resizable=0;points=[];" vertex="1" connectable="0" parent="jDaQLhD_lJ2NeZCt72Vo-55">
          <mxGeometry x="-0.0639" relative="1" as="geometry">
            <mxPoint as="offset" />
          </mxGeometry>
        </mxCell>
        <mxCell id="jDaQLhD_lJ2NeZCt72Vo-57" value="" style="endArrow=block;startArrow=none;endFill=0;startFill=0;endSize=8;html=1;verticalAlign=bottom;dashed=1;labelBackgroundColor=none;rounded=0;" edge="1" parent="jDaQLhD_lJ2NeZCt72Vo-37">
          <mxGeometry width="160" relative="1" as="geometry">
            <mxPoint x="257" y="150" as="sourcePoint" />
            <mxPoint x="97" y="150" as="targetPoint" />
          </mxGeometry>
        </mxCell>
        <mxCell id="jDaQLhD_lJ2NeZCt72Vo-58" value="Скан не совпадает" style="edgeLabel;html=1;align=center;verticalAlign=middle;resizable=0;points=[];" vertex="1" connectable="0" parent="jDaQLhD_lJ2NeZCt72Vo-57">
          <mxGeometry x="-0.0639" relative="1" as="geometry">
            <mxPoint as="offset" />
          </mxGeometry>
        </mxCell>
      </root>
    </mxGraphModel>
  </diagram>
</mxfile>
